<svg width="800" height="450" xmlns="http://www.w3.org/2000/svg" xmlns:xlink="http://www.w3.org/1999/xlink" overflow="hidden"><defs><clipPath id="clip0"><rect x="0" y="0" width="800" height="450"/></clipPath></defs><g clip-path="url(#clip0)"><rect x="0" y="0" width="800" height="450" fill="#FFFFFF"/><path d="M222.5 189C222.5 157.796 247.572 132.5 278.5 132.5 309.428 132.5 334.5 157.796 334.5 189 334.5 220.204 309.428 245.5 278.5 245.5 247.572 245.5 222.5 220.204 222.5 189Z" stroke="#AF8C70" stroke-width="0.833333" stroke-miterlimit="8" fill="#AF8C70" fill-rule="evenodd"/><text font-family="Open Sans,Open Sans_MSFontService,Arial" font-weight="700" font-size="9" transform="translate(249.113 181)">Teaching<tspan font-size="9" x="41.4583" y="0">and</tspan><tspan font-size="9" x="5.20833" y="11">supporting</tspan><tspan font-size="9" x="10.8875" y="21">learnin</tspan><tspan font-size="9" x="42.2417" y="21">g</tspan></text><path d="M324.5 247C324.5 215.796 349.572 190.5 380.5 190.5 411.428 190.5 436.5 215.796 436.5 247 436.5 278.204 411.428 303.5 380.5 303.5 349.572 303.5 324.5 278.204 324.5 247Z" stroke="#C06079" stroke-width="0.833333" stroke-miterlimit="8" fill="#C06079" fill-rule="evenodd"/><text font-family="Open Sans,Open Sans_MSFontService,Arial" font-weight="700" font-size="9" transform="translate(354.248 244)">Assessment <tspan font-size="9" x="-3.48749" y="11">and feedback</tspan></text><path d="M324.5 131C324.5 99.7959 349.572 74.5 380.5 74.5 411.428 74.5 436.5 99.7959 436.5 131 436.5 162.204 411.428 187.5 380.5 187.5 349.572 187.5 324.5 162.204 324.5 131Z" stroke="#F3965E" stroke-width="0.833333" stroke-miterlimit="8" fill="#F3965E" fill-rule="evenodd"/><text font-family="Open Sans,Open Sans_MSFontService,Arial" font-weight="700" font-size="9" transform="translate(354.458 128)">Educational <tspan font-size="9" x="11.5625" y="11">design</tspan></text><path d="M557.5 85C557.5 53.7959 582.572 28.5 613.5 28.5 644.428 28.5 669.5 53.7959 669.5 85 669.5 116.204 644.428 141.5 613.5 141.5 582.572 141.5 557.5 116.204 557.5 85Z" stroke="#FFE06B" stroke-width="0.833333" stroke-miterlimit="8" fill="#FFE06B" fill-rule="evenodd"/><text font-family="Open Sans,Open Sans_MSFontService,Arial" font-weight="700" font-size="9" transform="translate(587.161 77)">Educational <tspan font-size="9" x="-6.77081" y="11">leadership and </tspan><tspan font-size="9" x="-3.33331" y="21">management</tspan></text><path d="M558.5 282.5C558.5 251.572 583.572 226.5 614.5 226.5 645.428 226.5 670.5 251.572 670.5 282.5 670.5 313.428 645.428 338.5 614.5 338.5 583.572 338.5 558.5 313.428 558.5 282.5Z" stroke="#6DB6A1" stroke-width="0.833333" stroke-miterlimit="8" fill="#6DB6A1" fill-rule="evenodd"/><text font-family="Open Sans,Open Sans_MSFontService,Arial" font-weight="700" font-size="9" transform="translate(588.391 274)">Educational <tspan font-size="9" x="0.625" y="11">scholarship </tspan><tspan font-size="9" x="-2.7583" y="21">and research</tspan></text><path d="M210.5 187.5C210.5 109.628 273.628 46.5 351.5 46.5 429.372 46.5 492.5 109.628 492.5 187.5 492.5 265.372 429.372 328.5 351.5 328.5 273.628 328.5 210.5 265.372 210.5 187.5Z" stroke="#A5A5A5" stroke-width="5" stroke-miterlimit="8" stroke-dasharray="20 15" fill="none" fill-rule="evenodd"/><path d="M623.5 204.5 623.5 172.75 619.5 172.75 627.5 159.5 635.5 172.75 631.5 172.75 631.5 204.5Z" stroke="#A5A5A5" stroke-width="0.833333" stroke-miterlimit="8" fill="#A5A5A5" fill-rule="evenodd"/><path d="M607.5 159.5 607.5 191.25 611.5 191.25 603.5 204.5 595.5 191.25 599.5 191.25 599.5 159.5Z" stroke="#A5A5A5" stroke-width="0.833333" stroke-miterlimit="8" fill="#A5A5A5" fill-rule="evenodd"/><path d="M514.501 227.513 542.32 242.72 544.216 239.252 551.912 252.467 536.633 253.123 538.529 249.656 510.71 234.449Z" stroke="#A5A5A5" stroke-width="0.833333" stroke-miterlimit="8" fill="#A5A5A5" fill-rule="evenodd"/><path d="M535.835 276.572 508.016 261.366 506.12 264.834 498.424 251.619 513.703 250.962 511.807 254.43 539.626 269.637Z" stroke="#A5A5A5" stroke-width="0.833333" stroke-miterlimit="8" fill="#A5A5A5" fill-rule="evenodd"/><path d="M539.579 90.1379 510.5 102.768 512.074 106.393 496.918 104.358 505.777 91.8927 507.351 95.5176 536.431 82.888Z" stroke="#A5A5A5" stroke-width="0.833333" stroke-miterlimit="8" fill="#A5A5A5" fill-rule="evenodd"/><path d="M503.128 121.37 532.207 108.741 530.633 105.116 545.789 107.15 536.93 119.615 535.356 115.991 506.276 128.62Z" stroke="#A5A5A5" stroke-width="0.833333" stroke-miterlimit="8" fill="#A5A5A5" fill-rule="evenodd"/><path d="M210.5 378.5 657.25 378.5 657.25 374.5 670.5 382.5 657.25 390.5 657.25 386.5 210.5 386.5Z" stroke="#000000" stroke-width="0.833333" stroke-miterlimit="8" fill-rule="evenodd"/><text font-family="Open Sans,Open Sans_MSFontService,Arial" font-weight="400" font-size="12" transform="translate(356.719 412)">Development over time</text><rect x="130.5" y="104.5" width="20" height="168" stroke="#A5A5A5" stroke-width="0.625" stroke-linejoin="round" stroke-miterlimit="10" fill="#A5A5A5"/><text font-family="Open Sans,Open Sans_MSFontService,Arial" font-weight="400" font-size="12" transform="matrix(-1.83697e-16 -1 1 -1.83697e-16 144.293 255)">Interrelatedness of tasks</text></g></svg>